G04 Layer_Physical_Order=1*
G04 Layer_Color=39423*
%FSLAX25Y25*%
%MOIN*%
G70*
G01*
G75*
%ADD10R,0.01370X0.05500*%
%ADD11R,0.04331X0.05512*%
%ADD12R,0.05512X0.04331*%
%ADD13C,0.02000*%
%ADD14C,0.01102*%
%ADD15C,0.00984*%
%ADD16C,0.01000*%
%ADD17R,0.05906X0.05906*%
%ADD18C,0.05906*%
%ADD19C,0.14961*%
%ADD20R,0.06299X0.06299*%
%ADD21C,0.06299*%
%ADD22C,0.04724*%
G36*
X134696Y2115D02*
X2115D01*
Y30315D01*
X3937D01*
Y34449D01*
X4921D01*
Y35433D01*
X9646D01*
Y37757D01*
X12795D01*
X13467Y37846D01*
X14094Y38105D01*
X14200Y38187D01*
X14850D01*
X18403Y34634D01*
Y30285D01*
X10634D01*
Y27847D01*
X10385Y27247D01*
X10297Y26575D01*
Y18130D01*
X10385Y17458D01*
X10645Y16831D01*
X11057Y16294D01*
X15880Y11471D01*
X16418Y11058D01*
X17044Y10799D01*
X17717Y10710D01*
X56614D01*
X57286Y10799D01*
X57913Y11058D01*
X58451Y11471D01*
X60891Y13912D01*
X61304Y14449D01*
X61564Y15076D01*
X61652Y15748D01*
Y23372D01*
X62284Y23857D01*
X63010Y24803D01*
X63466Y25905D01*
X63622Y27087D01*
X63466Y28269D01*
X63010Y29370D01*
X62284Y30316D01*
X61338Y31041D01*
X60237Y31498D01*
X59187Y31636D01*
Y32140D01*
X60340Y32292D01*
X61537Y32788D01*
X62565Y33577D01*
X63354Y34605D01*
X63850Y35802D01*
X63889Y36102D01*
X59055D01*
X54221D01*
X54260Y35802D01*
X54756Y34605D01*
X55545Y33577D01*
X56573Y32788D01*
X57770Y32292D01*
X58924Y32140D01*
Y31636D01*
X57873Y31498D01*
X56772Y31041D01*
X55826Y30316D01*
X55669Y30112D01*
X55169D01*
X54973Y30367D01*
X54151Y30998D01*
X53193Y31395D01*
X52165Y31530D01*
X51138Y31395D01*
X50180Y30998D01*
X49358Y30367D01*
X48921Y29798D01*
X48421Y29968D01*
Y30285D01*
X30902D01*
Y30679D01*
X29232D01*
Y30286D01*
X28547D01*
Y25961D01*
Y21636D01*
X29232D01*
Y21242D01*
X30902D01*
Y21636D01*
X47768D01*
X47975Y21136D01*
X47153Y20314D01*
X27043D01*
X26577Y20780D01*
X26768Y21242D01*
X27264D01*
Y21636D01*
X27949D01*
Y25961D01*
Y30286D01*
X27264D01*
Y30679D01*
X25594D01*
Y30285D01*
X22738D01*
Y35531D01*
X22573Y36361D01*
X22104Y37064D01*
X22104Y37064D01*
X17281Y41887D01*
X16578Y42357D01*
X15748Y42522D01*
X15748Y42522D01*
X14200D01*
X14094Y42603D01*
X13467Y42863D01*
X12795Y42951D01*
X9252D01*
Y44094D01*
X7518D01*
Y57979D01*
X8950Y59411D01*
X10274D01*
X10634Y59073D01*
Y50423D01*
X15358D01*
Y50029D01*
X17028D01*
Y50423D01*
X17713D01*
Y54748D01*
X18996D01*
Y50029D01*
X19587D01*
Y54748D01*
X20870D01*
Y50423D01*
X21555D01*
Y50029D01*
X23224D01*
Y50423D01*
X28154D01*
Y50029D01*
X29823D01*
Y50423D01*
X30508D01*
Y54748D01*
X31106D01*
Y50423D01*
X31791D01*
Y50029D01*
X33461D01*
Y50423D01*
X35831D01*
Y50029D01*
X37500D01*
Y50423D01*
X38185D01*
Y54748D01*
X38783D01*
Y50423D01*
X39469D01*
Y50029D01*
X41005D01*
Y48917D01*
X41094Y48245D01*
X41353Y47619D01*
X41766Y47081D01*
X47927Y40920D01*
X48465Y40507D01*
X49092Y40247D01*
X49764Y40159D01*
X54644D01*
X54865Y39710D01*
X54756Y39568D01*
X54260Y38371D01*
X54221Y38071D01*
X59055D01*
X63889D01*
X63850Y38371D01*
X63354Y39568D01*
X62840Y40239D01*
X62937Y40313D01*
X64318Y41694D01*
X72809D01*
X73402Y40922D01*
X74389Y40165D01*
X75538Y39689D01*
X75655Y39673D01*
X75622Y39173D01*
X72047D01*
Y29724D01*
X81496D01*
Y29849D01*
X81945Y30070D01*
X82064Y29978D01*
X83310Y29463D01*
X83661Y29416D01*
Y34449D01*
X84646D01*
Y35433D01*
X89678D01*
X89632Y35785D01*
X89315Y36551D01*
X89593Y36966D01*
X90315D01*
X90315Y36966D01*
X91145Y37131D01*
X91848Y37601D01*
X92075Y37828D01*
X92208Y37846D01*
X92834Y38105D01*
X93372Y38518D01*
X93784Y39056D01*
X94044Y39682D01*
X94133Y40354D01*
Y49213D01*
X94044Y49885D01*
X93784Y50511D01*
X93372Y51049D01*
X89210Y55211D01*
X89546Y55582D01*
X90040Y55177D01*
X91682Y54299D01*
X93463Y53759D01*
X94331Y53673D01*
Y62087D01*
X85917D01*
X86003Y61219D01*
X86543Y59438D01*
X87421Y57796D01*
X87826Y57302D01*
X87455Y56965D01*
X72702Y71718D01*
X72165Y72131D01*
X71538Y72390D01*
X70866Y72479D01*
X65962D01*
X65800Y72690D01*
X64978Y73321D01*
X64020Y73718D01*
X62992Y73853D01*
X61964Y73718D01*
X61007Y73321D01*
X60184Y72690D01*
X59553Y71867D01*
X59157Y70910D01*
X59021Y69882D01*
X59157Y68854D01*
X59553Y67896D01*
X60184Y67074D01*
X61007Y66443D01*
X61964Y66046D01*
X62838Y65931D01*
X62940Y65571D01*
X62938Y65418D01*
X62153Y64816D01*
X61522Y63993D01*
X61125Y63036D01*
X60990Y62008D01*
X60566Y61614D01*
X54528D01*
Y57095D01*
X54028Y56849D01*
X53834Y56997D01*
X53743Y57035D01*
X53347Y57284D01*
Y61024D01*
X49213D01*
Y62992D01*
X53347D01*
Y64173D01*
Y67913D01*
X49213D01*
Y68898D01*
X48228D01*
Y73622D01*
X45079D01*
Y73228D01*
X27756D01*
Y71495D01*
X26231D01*
X26077Y71867D01*
X25446Y72690D01*
X24623Y73321D01*
X23666Y73718D01*
X22638Y73853D01*
X21610Y73718D01*
X20652Y73321D01*
X19830Y72690D01*
X19199Y71867D01*
X18802Y70910D01*
X18667Y69882D01*
X18802Y68854D01*
X19199Y67896D01*
X19830Y67074D01*
X20652Y66443D01*
X21610Y66046D01*
X22638Y65911D01*
X23666Y66046D01*
X24280Y66301D01*
X27756D01*
Y64605D01*
X7874D01*
X7202Y64516D01*
X6576Y64257D01*
X6038Y63844D01*
X3085Y60891D01*
X2672Y60354D01*
X2615Y60217D01*
X2115Y60316D01*
Y74656D01*
X134696D01*
Y2115D01*
D02*
G37*
%LPC*%
G36*
X96299Y25067D02*
Y16654D01*
X104713D01*
X104627Y17522D01*
X104087Y19303D01*
X103209Y20944D01*
X102029Y22383D01*
X100590Y23564D01*
X98948Y24441D01*
X97167Y24981D01*
X96299Y25067D01*
D02*
G37*
G36*
X132494Y57693D02*
X122425D01*
Y23025D01*
X132494D01*
Y57693D01*
D02*
G37*
G36*
X94331Y14685D02*
X85917D01*
X86003Y13817D01*
X86543Y12036D01*
X87421Y10394D01*
X88601Y8956D01*
X90040Y7775D01*
X91682Y6898D01*
X93463Y6357D01*
X94331Y6272D01*
Y14685D01*
D02*
G37*
G36*
X104713D02*
X96299D01*
Y6272D01*
X97167Y6357D01*
X98948Y6898D01*
X100590Y7775D01*
X102029Y8956D01*
X103209Y10394D01*
X104087Y12036D01*
X104627Y13817D01*
X104713Y14685D01*
D02*
G37*
G36*
X94331Y25067D02*
X93463Y24981D01*
X91682Y24441D01*
X90040Y23564D01*
X88601Y22383D01*
X87421Y20944D01*
X86543Y19303D01*
X86003Y17522D01*
X85917Y16654D01*
X94331D01*
Y25067D01*
D02*
G37*
G36*
X89678Y33465D02*
X85630D01*
Y29416D01*
X85982Y29463D01*
X87227Y29978D01*
X88296Y30799D01*
X89116Y31868D01*
X89632Y33113D01*
X89678Y33465D01*
D02*
G37*
G36*
X96299Y72469D02*
Y64055D01*
X104713D01*
X104627Y64923D01*
X104087Y66704D01*
X103209Y68346D01*
X102029Y69784D01*
X100590Y70965D01*
X98948Y71843D01*
X97167Y72383D01*
X96299Y72469D01*
D02*
G37*
G36*
X53347Y73622D02*
X50197D01*
Y69882D01*
X53347D01*
Y73622D01*
D02*
G37*
G36*
X94331Y72469D02*
X93463Y72383D01*
X91682Y71843D01*
X90040Y70965D01*
X88601Y69784D01*
X87421Y68346D01*
X86543Y66704D01*
X86003Y64923D01*
X85917Y64055D01*
X94331D01*
Y72469D01*
D02*
G37*
G36*
X9646Y33465D02*
X5906D01*
Y30315D01*
X9646D01*
Y33465D01*
D02*
G37*
G36*
X104713Y62087D02*
X96299D01*
Y53673D01*
X97167Y53759D01*
X98948Y54299D01*
X100590Y55177D01*
X102029Y56357D01*
X103209Y57796D01*
X104087Y59438D01*
X104627Y61219D01*
X104713Y62087D01*
D02*
G37*
%LPD*%
D10*
X41043Y25961D02*
D03*
X43602D02*
D03*
X46161D02*
D03*
X38484D02*
D03*
X35925D02*
D03*
X33366D02*
D03*
X30807D02*
D03*
X28248D02*
D03*
X25689D02*
D03*
X23130D02*
D03*
X20571D02*
D03*
X18012D02*
D03*
X15453D02*
D03*
X12894D02*
D03*
X41043Y54748D02*
D03*
X43602D02*
D03*
X46161D02*
D03*
X38484D02*
D03*
X35925D02*
D03*
X33366D02*
D03*
X30807D02*
D03*
X28248D02*
D03*
X25689D02*
D03*
X23130D02*
D03*
X20571D02*
D03*
X18012D02*
D03*
X15453D02*
D03*
X12894D02*
D03*
D11*
X49213Y62008D02*
D03*
Y68898D02*
D03*
X43307D02*
D03*
Y62008D02*
D03*
X37402Y68898D02*
D03*
X31496D02*
D03*
D12*
X4921Y34449D02*
D03*
Y40354D02*
D03*
D13*
X13780Y4921D02*
X58071D01*
X68819Y15669D01*
X95315D01*
X84646Y26339D01*
Y33217D01*
Y34449D01*
Y33217D02*
X78003Y26575D01*
X70866D01*
X60354Y37087D01*
X59055D01*
X33465D01*
X43602Y48917D02*
X49764Y42756D01*
X56404D01*
X57010Y42150D01*
X61100D01*
X63242Y44291D01*
X76772D01*
X77543Y49425D02*
X81906D01*
X84646Y46685D01*
Y44291D01*
X91535Y40354D02*
Y49213D01*
X70866Y69882D01*
X62992D01*
X64961Y62008D02*
X60039Y57087D01*
X59055D01*
X64814Y54134D02*
X72835D01*
X77543Y49425D01*
X64814Y54134D02*
X62830Y52150D01*
X55134D01*
X52535Y54748D01*
X46193D01*
X43602D02*
Y48917D01*
X52165Y48228D02*
X57913D01*
X59055Y47087D01*
X49213Y62008D02*
Y68898D01*
X43307D02*
X37402D01*
Y61024D01*
X31496Y62008D02*
X7874D01*
X4921Y59055D01*
Y40354D01*
X4921Y40354D01*
X12795D01*
X12894Y26575D02*
Y18130D01*
X17717Y13307D01*
X56614D01*
X59055Y15748D01*
Y27087D01*
X52165Y27559D02*
Y21654D01*
X48228Y17717D01*
X26575D01*
X13780Y4921D02*
X4921Y13780D01*
Y34449D01*
X23937Y40039D02*
X26240D01*
X23937D02*
X19685Y44291D01*
X20177Y44783D01*
X20669Y44291D02*
X30512D01*
X36417D01*
X38484Y46358D01*
X31496Y68898D02*
X23622D01*
X22638Y69882D01*
D14*
X23130Y21161D02*
X26575Y17717D01*
X23130Y21161D02*
Y25961D01*
X20571D02*
Y35531D01*
X15748Y40354D01*
X12795D01*
X28248Y25961D02*
Y38032D01*
X29193Y37087D01*
X33465D01*
X30807Y44587D02*
Y54748D01*
X33366D02*
Y60138D01*
X31496Y62008D01*
X35925Y59547D02*
X37402Y61024D01*
X35925Y59547D02*
Y54748D01*
X38484D02*
Y46358D01*
X30807Y44587D02*
X30512Y44291D01*
X41043Y54748D02*
Y59744D01*
X42323Y61024D01*
X49213Y68898D02*
X54134Y73819D01*
X84567D01*
X95315Y63071D01*
X81457Y39134D02*
X90315D01*
X91535Y40354D01*
X81457Y39134D02*
X76772Y34449D01*
X20571Y54748D02*
X18012D01*
Y46949D01*
X18996Y45965D01*
X20177Y44783D01*
X20571Y44390D01*
Y54748D01*
Y44390D02*
X20669Y44291D01*
X26240Y40039D02*
X28248Y38032D01*
D15*
X41043Y53248D02*
Y54748D01*
X35925D02*
Y53248D01*
X33366D02*
Y54748D01*
D16*
X125000Y25600D02*
Y26420D01*
X129920D01*
X129100Y27240D01*
Y35439D02*
X129920Y34620D01*
X125000D01*
Y33799D01*
Y35439D01*
Y38719D02*
X128280Y37079D01*
Y40359D02*
X125000Y38719D01*
Y31340D02*
X125820D01*
Y30520D01*
X125000D01*
Y31340D01*
Y27240D02*
Y25600D01*
X129100Y46919D02*
X129920Y47739D01*
Y49378D01*
X129100Y50198D01*
X125820D01*
X125000Y49378D01*
Y47739D01*
X125820Y46919D01*
Y51838D02*
X129920D01*
Y55118D02*
X125820D01*
X125000Y54298D01*
Y52658D01*
X125820Y51838D01*
D17*
X59055Y57087D02*
D03*
D18*
X59055Y27087D02*
D03*
Y37087D02*
D03*
Y47087D02*
D03*
D19*
X95315Y15669D02*
D03*
Y63071D02*
D03*
D20*
X76772Y34449D02*
D03*
D21*
X76772Y44291D02*
D03*
X84646Y34449D02*
D03*
Y44291D02*
D03*
D22*
X52165Y27559D02*
D03*
X52165Y48228D02*
D03*
X64961Y62008D02*
D03*
X62992Y69882D02*
D03*
X31496Y62008D02*
D03*
X22638Y69882D02*
D03*
M02*
